<svg xmlns="http://www.w3.org/2000/svg" width="650" height="650" style="display:block" viewBox="-100 -100 650 650">
  <defs>
    <linearGradient id="a" x1="-236.368" x2="262.283" y1="-.328" y2="498.323" gradientTransform="matrix(.86 0 0 1.163 213.861 -64.653)" gradientUnits="userSpaceOnUse">
      <stop offset="0%" style="stop-color:#00f7b1;stop-opacity:1"/>
      <stop offset="100%" style="stop-color:#78c2ad;stop-opacity:1"/>
    </linearGradient>
  </defs>
  <path d="m231.808-65.034-2.072.006-2.07.013-2.063.023-2.042.033-2.02.043-1.997.053-1.955.063-1.905.07-1.823.076-3.313.166-3.054.19-2.887.214-2.746.243-2.676.273-2.566.293-2.445.308-2.313.313-2.148.293-2.047.297-1.989.318-1.941.342-1.91.373-1.926.412-1.965.453-2.074.512-2.3.594-2.427.652-2.488.7-2.535.742-2.54.773-2.554.81-2.574.844-2.582.885-2.582.928-2.574.96-2.557.983-2.537 1.004-2.516 1.021-2.472 1.034-2.42 1.04-2.342 1.03-2.22 1.008-2.135 1-2.07.996-2.013.996-1.97 1.002-1.92 1.002-1.865 1-1.807.996-1.736.984-1.686.98-1.648.985-1.618.988-1.593 1-1.578 1.01-1.569 1.018-1.572 1.035-1.596 1.05-1.607 1.067-1.615 1.088-1.62 1.108-1.617 1.128-1.629 1.157-1.644 1.183-1.672 1.22-1.723 1.261-1.75 1.297-1.761 1.332-1.766 1.36-1.754 1.374-1.75 1.41-1.746 1.45-1.75 1.515-1.77 1.63-1.757 1.68-1.723 1.686-1.688 1.691-1.656 1.688L69.685.358l-1.49 1.568-1.334 1.42-1.98 2.145-1.645 1.855-1.59 1.887-1.785 2.113-1.16 1.291-1.281 1.416-1.348 1.51-1.399 1.596-1.414 1.656-1.441 1.742-1.47 1.84-1.487 1.95-1.49 2.09-1.498 2.2-1.504 2.283-1.508 2.364-1.51 2.427-1.506 2.49-1.498 2.55-1.486 2.595-1.47 2.63-1.452 2.67-1.428 2.708-1.4 2.742-1.371 2.771-1.336 2.8-1.295 2.824-1.248 2.855-1.19 2.895-1.134 2.91-1.082 2.914-1.031 2.906-.985 2.88-.926 2.854-.863 2.83-.789 2.811-.691 2.81-.618 2.768-.562 2.705-.504 2.592-.436 2.393-.4 2.287-.383 2.247-.406 2.198-.508 2.145-.531 2.175-.508 2.248-.453 2.432-.342 2.8-.271 2.993-.221 3.084-.166 3.123-.107 3.057-.061 3.056-.023 3.067.004 3.132.007 3.328.028 3.306.058 3.18.094 2.875.137 2.25.172 1.93.205 1.799.236 1.708.266 1.71.297 1.75.328 1.82.359 2.033.39 2.469.423 2.695.453 2.79.484 2.858.514 2.854.545 2.834.578 2.805.613 2.695.656 2.469.692 2.344.718 2.277.746 2.223.77 2.205.79 2.18.808 2.156.82 2.146.824 2.166.836 2.166.848 2.152.867 2.14.895 2.13.906 2.113.916 2.09.908 2.043.865 1.957.865 1.926.899 1.93.934 1.937.964 1.934 1.04 1.992 1.132 2.072 1.301 2.252 1.594 2.6 1.746 2.755 1.824 2.805 1.836 2.777 1.725 2.618 1.713 2.535 1.732 2.473 1.83 2.437 2.098 2.486 2.125 2.389 1.937 2.113 1.84 2.012 1.848 2.166 1.59 1.897 1.718 1.98 1.844 1.957 2.156 1.926 2.281 1.949 2.29 2 2.273 2.125 2.21 2.375 2.102 2.5 1.973 2.59 1.715 2.535 1.246 2.19 1.004 2.248.895 2.53.855 3.032.467 1.86.482 2.046.492 2.2.496 2.33.493 2.403.504 2.54.52 2.695.546 2.926.598 3.297.31 1.723.315 1.757.32 1.776.322 1.783.323 1.783.312 1.756.574 3.346.582 3.27.623 3.239.721 3.27.445 1.719.483 1.736.502 1.717.515 1.69 1.043 3.244 1.012 2.894.879 2.205.832 1.845.824 1.664.84 1.598.916 1.771.932 1.76.914 1.652.863 1.504 1.434 2.344 1.379 1.97 1.453 1.807 1.734 1.88 2.422 2.41 1.316 1.242 1.325 1.223 2.472 2.242 2.465 1.883 2.809 1.258 2.191.742-.984 1.69-1.016 2.31-.266 2.402.016 2.536.05 2.664.2 2.398.938 2.813 1.062 2.187.813 2.563.187 2.437-1.465 1.78-1.535 2.22-.398 2.84.023 3.098-.023 3.09.398 2.972 1.523 2.879 1.477 2.12-1.5 2.5-.824 1.648-.676 1.852-.27 2.04-.043 2.085.098 2.06.215 1.816.625 2.188 1.375 1.811 1.18 1.254 1.431 1.328 1.631 1.336 1.758 1.082 1.773.44 1.846.128 1.94-.002 2.027-.078 2.127-.02 2.19-.029 2.222-.062 2.25-.064 2.283-.038 2.26-.03 2.184-.034 2.109-.035 2.064-.047 1.883-.049 2.842-.08v3l.813 1.98 1.187 2.207 1.395 2.41 1.605 2.403 1.762 2.121 1.925 2.004 2.09 1.965 2.223 1.91 2.316 1.88 2.434 1.808 2.535 1.739 2.715 1.573 3.059 1.23 3.128 1.145 3.063 1.18 2.75 1.445 2 2.133 1.688 2.367 1.628 2.34 1.684 2.16 1.965 1.691 2.16 1.371 2.293 1.118 2.582.82 3.113.509 3.324.18 3.344-.145 3.219-.543 2.844-1.074 2.593-1.426 2.434-1.648 2.129-1.852 1.598-2.04 1.402-2.084 1.395-2.066 1.605-1.81 2.2-1.152 2.487-.91 2.602-.9 2.711-1.038 2.773-1.477 2.79-1.71 2.769-1.84 2.668-1.973 2.45-2.066 2.3-2.184 2.168-2.262 2.082-2.488 1.064-1.475 1.05-1.545.923-1.402 1.025-1.64 1.59-2.66 1.348-2.278 2.355-.076 3.262-.108 1.735-.06 1.793-.063 1.853-.066 1.877-.064 1.865-.061 1.842-.06 1.795-.063 1.74-.063 3.27-.11 2.613-.206 2-1 2.438-1.688 2.562-2.312 1.813-2.75 1.187-3.25.32-1.953.118-2.047-.06-2.055-.378-1.945-.973-1.633-1.152-1.492-1.875-2.875.75-2.625.66-1.457.59-1.918.184-3.012.004-3.3-.02-3.176-.168-2.512-1-1-.688-2.25-.312-2.75.969-2.285 1.031-2.715.23-3.043-.043-3.144-.019-3.168-.168-2.645-1-2 2.152-.297 2.848-.703 2.754-1.453 2.808-1.797 2.817-1.766 2.621-1.984 2.168-2.527 1.832-2.473 1.422-1.676 1.328-1.637 1.543-2.097 1.707-2.59.97-1.605 1.018-1.766 1.033-1.885 1.042-1.994 1.039-2.088 1.015-2.166.98-2.234.903-2.262.762-2.22.683-2.245.639-2.324.603-2.4.59-2.457.578-2.588.569-2.745.576-3.021.303-1.71.308-1.804.313-1.855.314-1.897.32-1.916.32-1.927.317-1.928.305-1.9.273-1.83.264-1.794.274-1.775.283-1.754.297-1.738.324-1.73.361-1.715.424-1.727.533-1.771.596-1.77.627-1.736.65-1.696 1.323-3.22 1.271-2.807 1.037-2.027.963-1.63 2-2.843 1.135-1.6 1.217-1.65 1.277-1.625 1.371-1.625 1.504-1.625 1.582-1.625 1.627-1.625 1.662-1.625 1.68-1.627 1.675-1.627 1.663-1.625 1.607-1.621 1.494-1.61 1.432-1.605 1.394-1.607 1.368-1.615 1.359-1.633 1.34-1.64 1.318-1.65 1.295-1.64 1.268-1.61 1.252-1.617 1.244-1.65 1.236-1.685 1.225-1.717 1.232-1.791 1.248-1.883 1.295-2.047 1.393-2.328 1.431-2.477 1.436-2.545 1.428-2.587 1.402-2.59 1.363-2.563 1.315-2.515 1.232-2.395 1.1-2.164 1.01-2.027.943-1.94.885-1.87.845-1.843.795-1.79.74-1.721.682-1.645 1.172-2.992 1.016-2.883.917-2.938.895-3.187.486-1.816.502-1.934.506-2.018.506-2.107.492-2.203.492-2.27.498-2.328.518-2.324.564-2.203.577-2.23.564-2.372.545-2.507.516-2.625.472-2.91.42-3.262.184-1.838.158-2.053.123-2.393.098-2.603.076-2.73.058-2.833.04-2.884.023-2.924.012-2.953.007-2.93.018-2.842.014-2.797-.008-2.765-.027-2.737-.05-2.714-.081-2.68-.121-2.631-.182-2.584-.281-2.531-.34-2.47-.373-2.392-.397-2.318-.41-2.25-.412-2.148-.408-2.03-.379-1.861-.586-3.047-.52-2.601-.529-2.385-.553-2.342-.625-2.621-.68-2.695-.722-2.66-.785-2.65-.879-2.62-.941-2.594-.979-2.562-1.013-2.536-1.043-2.517-1.055-2.467-1.059-2.404-1.031-2.3-.95-2.12-.921-2.02-.932-1.976-.947-1.945-.977-1.93-1.023-1.945-1.078-1.981-1.172-2.082-1.328-2.293-1.422-2.394-1.479-2.43-1.521-2.445-1.535-2.418-1.555-2.387-1.574-2.352-1.586-2.281-1.598-2.172-1.593-2.086-1.573-2.004-1.548-1.925-1.536-1.872-1.48-1.777-1.404-1.664-1.268-1.5-1.922-2.352-1.64-1.96-1.625-1.817-1.813-1.871-2.375-2.277-1.313-1.22-1.375-1.253-1.412-1.264-1.459-1.29-1.511-1.33-1.555-1.366-1.59-1.422-1.633-1.46-1.677-1.487-1.725-1.506-1.771-1.518-1.819-1.53-1.867-1.536-1.918-1.541-1.977-1.541-2.027-1.537-2.07-1.53-2.113-1.517-2.153-1.508-2.187-1.488-2.223-1.461-2.25-1.418-2.27-1.352-2.296-1.308-2.329-1.277-2.355-1.25-2.375-1.225-2.41-1.205-2.45-1.192-2.515-1.191-2.629-1.223-2.68-1.222-2.69-1.198-2.689-1.17-2.675-1.134-2.63-1.084-2.566-1.028-2.441-.941-2.223-.81-2.097-.721-2.024-.664-1.969-.617-1.958-.586-1.936-.555-1.908-.53-1.885-.517-1.85-.525-1.85-.522-1.878-.514-1.922-.502-1.975-.48-2.056-.477-2.16-.478-2.309-.502-2.527-.56-2.692-.577-2.83-.566-2.951-.547-3.025-.518-3.155-.474-3.304-.422-1.723-.182-1.793-.154-1.895-.115-1.957-.088-2-.068-2.03-.05-2.044-.034-2.058-.02-2.069-.006zm-5.01 18.943h2.65l2.636.011 2.607.028 2.572.043 2.541.058 2.467.076 2.371.098 2.219.123 1.977.158 1.82.184 3.332.42 3.05.472 2.821.516 2.717.55 2.572.567 2.416.576 2.295.557 2.21.486 2.126.46 2.05.458 1.989.471 1.936.502 1.904.521 1.89.543 1.895.56 1.922.565 1.957.598 2.006.645 2.052.691 2.07.734 2.169.813 2.295.904 2.529 1.05 2.947 1.282 3.158 1.42 1.612.739 1.625.756 1.64.772 1.643.78 1.64.79 1.631.792 1.608.793 1.586.793 3.082 1.576 2.828 1.506 2.355 1.346 2.086 1.267 1.934 1.235 1.813 1.215 1.763 1.224 1.713 1.23 1.664 1.231 1.672 1.252 1.748 1.291 1.775 1.318 1.774 1.342 1.766 1.361 1.726 1.366 1.719 1.392 1.726 1.432 1.766 1.498 1.86 1.623 1.882 1.682 1.863 1.691 1.833 1.692 1.79 1.68 1.714 1.632 1.614 1.566 1.444 1.434 2.152 2.25 1.723 1.938 1.566 1.882 1.559 1.93 1.84 2.18 1.972 2.382 2.028 2.57 1.058 1.39 1.102 1.478 1.168 1.605 1.21 1.7 1.24 1.781 1.257 1.853 1.266 1.908 1.277 1.974 1.287 2.046 1.295 2.133 1.307 2.243 1.306 2.312 1.295 2.361 1.28 2.397 1.26 2.414 1.228 2.425 1.19 2.43 1.134 2.418 1.053 2.39.99 2.364.94 2.327.892 2.294.857 2.283.811 2.22.76 2.138.697 1.985 1.176 3.276 1.012 3.036.902 3.19.441 1.696.469 1.801.55 1.938.579 2.09.57 2.276.551 2.446.514 2.569.47 2.833.42 3.16.184 1.757.162 1.931.13 2.202.106 2.372.086 2.486.069 2.57.05 2.612.036 2.659.02 2.695.003 2.716-.006 2.722-.02 2.71-.035 2.685-.052 2.65-.069 2.62-.086 2.55-.105 2.453-.127 2.299-.154 2.053-.176 1.894-.4 3.475-.456 3.187-.501 2.953-.542 2.846-.572 2.69-.595 2.52-.604 2.382-.584 2.27-.584 2.164-.596 2.072-.611 1.994-.643 1.928-.658 1.88-.666 1.852-.658 1.84-.615 1.852-.615 1.87-.649 1.905-.684 1.935-.722 1.944-.797 2.02-.885 2.134-1.033 2.34-1.28 2.719-1.42 2.91-1.495 2.978-1.555 3.018-1.582 3.004-1.586 2.933-1.576 2.833-1.506 2.605-1.346 2.184-1.267 1.94-1.235 1.806-1.214 1.695-1.223 1.648-1.227 1.602-1.232 1.559-1.256 1.566-1.307 1.645-1.338 1.668-1.357 1.662-1.373 1.65-1.375 1.623-1.39 1.604-1.413 1.587-1.447 1.56-1.51 1.521-1.537 1.502-1.54 1.49-1.538 1.488-1.523 1.488-1.497 1.492-1.459 1.502-1.396 1.518-1.291 1.545-1.22 1.568-1.173 1.586-1.129 1.613-1.1 1.653-1.064 1.672-1.027 1.69-.996 1.673-.965 1.6-.933 1.607-.909 1.672-.88 1.746-.856 1.826-.836 1.97-.816 2.147-.805 2.432-.8 2.9-.79 3.178-.775 3.34-.381 1.719-.379 1.738-.375 1.742-.37 1.752-.366 1.764-.362 1.77-.357 1.779-.354 1.779-.35 1.775-.341 1.764-.334 1.744-.33 1.729-.645 3.406-.632 3.322-.621 3.236-.618 3.167-.613 3.017-.607 2.832-.6 2.547-.588 2.098-.588 1.812-1.199 3.09-1.242 2.625-1.383 2.375-1.695 2.563-1.805 2.437-1.793 2.156-1.707 1.844-1.488 1.406-1.325 1.094-2.187 1.5-2 1-2.705.113-3.397-.015-1.806-.004-1.865-.006-1.913-.012-1.939-.014-1.95-.007-1.925-.006-1.863-.006-1.801-.006-3.389-.02-2.447-.017c1.232-1.48 1.376-1.475 3.313-3.375l2.687-1.625 2.188-2.188c4.328-4.512 3.222-3.222 7.812-7.812l1.55-1.832 1.763-1.98 1.794-2.292 1.893-2.896.719-1.572.629-1.66.601-1.752.594-1.852.644-1.976.641-2.043.611-2.08.561-2.065.467-1.98.414-1.948.383-1.95.361-1.954.35-1.967.343-1.984.336-1.996.346-2.034.377-2.113.389-2.137.39-2.123.387-2.095.38-2.06.372-1.991.361-1.904.344-1.764.607-2.91.569-2.496.566-2.285.57-2.122.586-2.058.63-2.02.683-1.998.789-2.111.98-2.432 1.086-2.552 1.135-2.551 1.174-2.527 1.188-2.448 1.18-2.334 1.161-2.2 1.096-1.956 1.82-2.844 1.68-2.22 1.703-1.98 1.797-1.956 2.047-2.363 2.203-2.512 2.313-2.555 1.203-1.293 1.234-1.277 1.266-1.223 1.297-1.222 1.328-1.256 1.359-1.3 1.385-1.356 1.416-1.44 1.451-1.533 1.498-1.67 1.564-1.873 1.604-2.018 1.629-2.132 1.64-2.227 1.64-2.28 1.638-2.372 1.64-2.477 1.645-2.621 1.664-2.852 1.652-2.964 1.614-2.993 1.57-3.003 1.527-3 1.446-2.91 1.343-2.778 1.184-2.5.922-1.98.762-1.704 1.254-3.066 1.046-2.957 1.016-3.293.643-2.154.685-2.358.688-2.465.672-2.46.615-2.24.584-2.257.562-2.406.551-2.66.572-3.104.545-3.408.254-1.785.234-1.842.213-1.9.182-1.961.135-2.025.101-2.08.078-2.127.057-2.166.037-2.19.024-2.225.006-2.257v-2.305l.001-2.377-.003-2.408-.02-2.403-.037-2.39-.057-2.367-.08-2.315-.105-2.244-.137-2.121-.186-1.918-.216-1.791-.508-3.338-.576-3.125-.639-2.953-.68-2.887-.715-2.777-.74-2.652-.74-2.56-.697-2.485-.69-2.412-.705-2.338-.72-2.264-.745-2.184-.775-2.132-.807-2.094-.861-2.09-.951-2.14-.998-2.137-1.018-2.1-1.033-2.06-1.041-2.012-1.025-1.942-1-1.865-.934-1.744-1.527-2.984-1.41-2.704-1.454-2.61-1.609-2.702-.955-1.533-1.03-1.608-1.08-1.638-1.123-1.66-1.148-1.651-1.184-1.648-1.22-1.643-1.26-1.62-1.303-1.567-1.334-1.537-1.357-1.518-1.381-1.502-1.404-1.494-1.412-1.48-1.414-1.46-1.395-1.441-1.336-1.414-1.316-1.395-1.325-1.382-1.335-1.371-1.352-1.356-1.387-1.352-1.431-1.353-1.518-1.377-1.67-1.436-1.748-1.45-1.78-1.44-1.802-1.424-1.81-1.4-1.788-1.354-1.75-1.297-1.652-1.2-2.809-1.964-2.629-1.722-2.667-1.633-2.895-1.68-1.69-.973-1.798-1.02-1.86-1.032-1.902-1.038-1.908-1.017-1.928-.998-1.95-.98-1.964-.942-1.99-.89-1.987-.844-1.98-.813-1.918-.766-1.762-.697-1.73-.666-1.766-.652-1.867-.672-2.092-.744-2.224-.764-2.305-.758-2.379-.734-2.426-.674-2.484-.642-2.565-.627-2.587-.62-2.506-.63-2.592-.623-2.758-.6-3.082-.584-1.785-.295-1.897-.29-1.968-.28-2.026-.268-2.058-.254-2.082-.232-2.1-.207-2.084-.174-2.02-.12-1.998-.083-1.994-.06-1.996-.038-2-.021-2.015-.008-2.03.006-2.072.01-2.16.007-2.192.012-2.187.02-2.172.029-2.143.043-2.09.055-2.023.068-1.908.08-3.313.207-2.976.258-2.8.308-2.661.352-2.605.387-2.56.437-2.515.49-2.57.56-2.764.667-2.822.729-2.791.757-2.748.785-2.678.805-2.564.793-2.434.77-2.199.695-1.803.535-1.58.46-2.867.88-2.746.95-3.004 1.175-1.902.803-2.07.904-2.145.965-2.195 1.016-2.194 1.044-2.19 1.073-2.181 1.095-2.123 1.1-1.998 1.068-1.932 1.065-1.894 1.08-1.864 1.1-1.851 1.124-1.836 1.153-1.816 1.183-1.809 1.227-1.816 1.293-1.809 1.336-1.791 1.363-1.772 1.383-1.74 1.389-1.713 1.4-1.69 1.41-1.669 1.426-1.662 1.447-1.635 1.45-1.592 1.435-1.549 1.418-1.507 1.404-1.442 1.358-1.365 1.299-1.248 1.189-2.02 1.895-1.73 1.668-1.621 1.66-1.629 1.777-1.848 2.12-1.965 2.38-2.03 2.605-1.06 1.409-1.097 1.486-1.152 1.576-1.192 1.662-1.222 1.748-1.246 1.826-1.256 1.89-1.28 1.985-1.304 2.086-1.348 2.227-1.422 2.438-1.45 2.562-1.444 2.63-1.434 2.683-1.41 2.707-1.36 2.703-1.294 2.68-1.186 2.597-1.002 2.422-.885 2.324-.808 2.274-.743 2.23-.697 2.205-.654 2.186-.613 2.17-.598 2.189-.611 2.268-.6 2.279-.568 2.264-.534 2.189-.484 1.992-.441 1.946-.403 1.984-.359 2.078-.314 2.266-.272 2.422-.228 2.562-.186 2.75-.14 3-.098 3.188-.055 3.328-.02 3.484-.007 1.822.002 1.858.011 1.879.026 1.894.039 1.9.058 1.899.079 1.889.105 1.859.145 1.805.171 1.77.403 3.47.459 3.39.51 3.315.546 3.283.575 3.17.597 3.018.594 2.779.55 2.389.548 2.158.564 2.03.588 1.923.621 1.87.66 1.849.703 1.847.766 1.934.86 2.152.921 2.254.965 2.29 1.004 2.304 1.033 2.283 1.057 2.264 1.078 2.248 1.082 2.205 1.063 2.127 1.066 2.076 1.082 2.04 1.101 2.007 1.122 1.979 1.148 1.95 1.182 1.923 1.236 1.898 1.326 1.89 1.373 1.868 1.395 1.828 1.406 1.789 1.404 1.744 1.393 1.69 1.373 1.632 1.33 1.559 1.252 1.46 1.201 1.388 2.297 2.59 2.207 2.414 2.043 2.148 1.762 1.71 1.675 1.603 1.688 1.68 1.875 2.007 1.145 1.305 1.23 1.453 1.27 1.549 1.293 1.63 1.29 1.682 1.284 1.74 1.267 1.8 1.221 1.84 1.13 1.866 1.077 1.9 1.04 1.94 1.003 1.983.982 2.03.956 2.067.921 2.098.891 2.117.86 2.113.828 2.133.796 2.172.766 2.207.736 2.234.705 2.293.672 2.364.637 2.484.594 2.7.558 2.804.532 2.836.504 2.848.482 2.826.463 2.767.441 2.688.426 2.53.41 2.259.395 2.086.382 1.97.376 1.873.373 1.817.365 1.742.699 3.254.605 2.973.645 2.777.758 2.637.992 2.613 1.43 2.77 1.695 2.793 1.855 2.734 2.02 2.703 2.176 2.703 2.261 2.61 2.274 2.453 2.289 2.234 2.352 1.922 2.21 1.64 2.004 1.38 1.434 1.058v1l-2.352.11-3.273.136-1.758.05-1.824.046-1.889.043-1.904.053-1.861.09-1.838.087-1.819.053-1.794.016-1.782-.022-1.726-.1-3.18-.562-2.55-1.455-2.13-1.834-1.757-1.822-1.563-1.89-1.59-1.813-1.535-1.998-1.447-2.327-1.428-2.861-.73-1.783-.739-1.97-.736-2.101-.752-2.24-.795-2.38-.789-2.47-.764-2.525-.695-2.531-.566-2.451-.493-2.428-.457-2.437-.425-2.446-.42-2.47-.41-2.48-.397-2.486-.394-2.49-.399-2.508-.404-2.502-.41-2.485-.416-2.455-.416-2.414-.432-2.369-.457-2.318-.504-2.262-.592-2.205-.635-2.13-.654-2.056-.654-1.945-.61-1.793-.601-1.69-1.254-3.18-.74-1.64-.758-1.583-1.377-2.715-1.5-2.618-1.625-2.445-1.938-2.383-1.937-2.18-1.805-1.878c-3.409-3.021-4.317-4.693-6.996-7.003l-1.637-1.68-1.843-1.906-1.844-1.97-1.656-1.78-1.656-1.844-1.754-2.047-1.934-2.329-1.105-1.334-1.172-1.432-1.22-1.517-1.253-1.591-1.27-1.647-1.296-1.728-1.325-1.817-1.359-1.934-1.41-2.105-1.43-2.207-1.428-2.26-1.42-2.302-1.41-2.34-1.37-2.328-1.317-2.291-1.215-2.166-1.035-1.896-.934-1.78-.88-1.758-.839-1.753-.814-1.792-.81-1.87-.817-1.971-.871-2.18-1.004-2.55-1.059-2.76-1.066-2.87-1.059-2.945-1.027-2.947-.988-2.967-.94-2.982-.857-2.98-.725-2.973-.634-2.925-.57-2.856-.508-2.746-.46-2.586-.412-2.445-.337-2.112-.354-2.357-.531-3.229-.258-1.826-.211-1.945-.107-2.037-.055-2.145-.027-2.248-.014-2.37-.018-2.532-.013-2.623-.006-2.674-.01-2.684-.031-2.625-.031-2.603-.016-2.602v-2.595l.02-2.592.052-2.578.094-2.555.162-2.537.275-2.533.342-2.492.38-2.434.398-2.334.38-2.156.39-2.059.401-1.992.434-2 .496-2.158.508-2.125.465-1.895.469-1.822.513-1.87.526-1.82 1.023-3.31.898-2.59.915-2.347 1.003-2.36 1.184-2.703.73-1.736.797-1.905.842-1.99.881-2.056.912-2.08.936-2.092.953-2.096.949-2.045.906-1.912.903-1.854.925-1.84.953-1.832.989-1.84 1.039-1.867 1.097-1.892 1.188-1.963 1.332-2.1 1.422-2.162 1.475-2.177 1.521-2.186 1.553-2.176 1.568-2.136 1.578-2.086 1.551-1.977 1.469-1.773 1.441-1.665 1.445-1.613 1.458-1.574 1.478-1.557 1.514-1.564 1.556-1.586 1.639-1.668 1.777-1.852 1.856-1.933 1.888-1.95 1.917-1.953 1.93-1.93 1.917-1.878 1.895-1.817 1.82-1.687 1.66-1.457 1.586-1.328 1.568-1.26 1.561-1.205 1.574-1.18 1.614-1.172 1.664-1.17 1.773-1.228 1.977-1.357 2.085-1.416 2.138-1.427 2.176-1.426 2.182-1.4 2.177-1.37 2.162-1.334 2.103-1.27 1.979-1.166 1.912-1.096 1.88-1.047 1.854-1.004 1.842-.972 1.838-.938 1.834-.902 1.861-.875 1.93-.855 1.953-.829 1.94-.796 1.927-.77 1.916-.742 1.865-.707 1.801-.674 1.668-.627 2.719-1.082 2.531-.98 2.652-.938 3.098-1 1.965-.605 2.164-.645 2.285-.654 2.398-.659 2.49-.642 2.55-.623 2.593-.604 2.555-.568 2.367-.514 2.344-.47 2.437-.434 2.54-.395 2.644-.359 2.871-.32 3.15-.278 1.739-.12 1.908-.11 2.174-.098 2.34-.086 2.445-.074 2.525-.062 2.563-.05 2.603-.034 2.635-.022zM125.611 31.535l2.23.234 2.02.577 1.676.828 1.386 1.11 1.122 1.37.816 1.692.473 2.16.152 2.34.04 2.22-.665 2.28-2.246 2.5-1.371 1.268-1.383 1.232-2.324 2.22-2.364 2.28-1.3 1.295-1.34 1.365-1.346 1.406-1.326 1.434-1.256 1.422-1.228 1.45-1.227 1.505-1.227 1.56-1.232 1.618-1.248 1.703-1.268 1.797-1.314 1.945-1.412 2.18-1.451 2.312-1.45 2.385-1.437 2.435-1.41 2.448-1.36 2.443-1.294 2.428-1.186 2.37-1.002 2.251-.885 2.17-.808 2.103-.743 2.037-.703 1.983-.66 1.908-.615 1.822-.584 1.725-1.105 3.11-1.02 2.702-.82 2.27-1.055 1.918-1.902 1.734-2.098 1.266-3.438.438-1.816-.075-1.746-.363-2.875-1.875-2.125-2.125-1-2-.313-3.313.043-2.183.27-2.504.613-2.785.887-3.09.527-1.648.59-1.73.656-1.817.727-1.93.813-2.09.882-2.187.94-2.246.99-2.29 1.027-2.302 1.07-2.307 1.114-2.303 1.164-2.275 1.23-2.22 1.266-2.17 1.28-2.114 1.287-2.059 1.296-2.02 1.274-1.937L92.724 63l1.137-1.654 1.805-2.574 1.632-2.176 1.66-2.043 1.903-2.207 1.223-1.404 1.336-1.522 1.388-1.56 1.428-1.576 1.434-1.542 1.425-1.51 1.412-1.474 1.354-1.412 2.39-2.543 2.235-2.207 2.18-1.87 2.195-1.38 2.383-.66 2.367-.153zm80.25 41.811h39v60h57v38h-57c-.02 38.035.165 76.072.156 114.105l-40.156-.105v-114h-58v-37l58-1zm-130.8 68.621a11.593 11.366 0 0 1 11.593 11.367A11.593 11.366 0 0 1 75.06 164.7a11.593 11.366 0 0 1-11.592-11.366 11.593 11.366 0 0 1 11.592-11.367zm70.8 259.38h156v11h-156zm0 24h157v9h-157zm0 22h157v8h-157zm39.24 20.924 76.76.075s-.71 1.845-1.541 3.082c-.378.562-1.116 1.7-1.799 2.445-.48.524-1.057.95-1.597 1.41-.617.526-1.23 1.055-1.876 1.543a27.92 27.92 0 0 1-2.187 1.52c-.848.522-1.737.976-2.625 1.426-.924.468-1.87.892-2.813 1.324-.87.4-1.734.812-2.62 1.172a53.504 53.504 0 0 1-6.747 2.196 49.11 49.11 0 0 1-2.068.49c-.705.149-1.414.29-2.127.393-.702.1-1.41.165-2.117.22-.714.057-1.43.09-2.145.116-.727.027-1.454.038-2.181.045-.748.007-1.496-.004-2.245-.006-.79-.003-1.582 0-2.373-.01-.796-.01-1.592-.024-2.388-.053a71.185 71.185 0 0 1-2.342-.117 41.688 41.688 0 0 1-2.209-.195c-.647-.08-1.29-.185-1.932-.305a30.048 30.048 0 0 1-1.775-.383 52.552 52.552 0 0 1-3.293-.937 48.755 48.755 0 0 1-3.098-1.105 49.92 49.92 0 0 1-2.902-1.27 59.092 59.092 0 0 1-5.438-2.938c-.81-.493-2.394-1.542-2.394-1.542l-2.168-1.52-1.95-1.426-1.675-1.324s-1.82-1.595-2.643-2.48c-.538-.58-1.492-1.846-1.492-1.846z" style="fill:url(#a)"/>
  <path d="m231.809-65.034-2.072.006-2.07.013-2.063.023-2.042.033-2.02.043-1.997.053-1.957.063-1.903.07-1.823.076-3.31.166-3.057.19-2.887.214-2.746.243-2.676.273-2.566.293-2.444.308-2.314.313-2.148.293-2.047.297-1.987.318-1.943.342-1.912.373-1.924.412-1.965.453-2.074.512-2.303.594-2.424.652-2.488.7-2.535.742-2.54.773-2.554.81-2.574.844-2.582.885-2.582.928-2.574.96-2.557.983-2.537 1.004-2.516 1.021-2.472 1.034-2.42 1.037-2.342 1.033-2.22 1.008-2.135 1-2.07.996-2.013.996-1.97 1.002-1.92 1.002-1.865 1-1.807.996-1.736.984-1.686.98-1.648.985-1.618.988-1.593 1-1.578 1.01-1.569 1.018-1.572 1.035-1.596 1.05-1.607 1.067-1.615 1.088-1.62 1.108-1.617 1.128-1.629 1.157-1.644 1.183-1.672 1.22-1.723 1.261-1.75 1.297-1.761 1.332-1.766 1.36-1.754 1.374-1.75 1.41-1.746 1.45-1.75 1.515-1.77 1.63-1.757 1.68-1.723 1.686-1.688 1.691-1.656 1.686L69.686.36l-1.49 1.567-1.334 1.42-1.98 2.145-1.645 1.855-1.59 1.887-1.785 2.113-1.16 1.291-1.281 1.416-1.348 1.51-1.399 1.596-1.414 1.656-1.441 1.742-1.47 1.84-1.487 1.95-1.49 2.09-1.498 2.2-1.504 2.283-1.508 2.364-1.51 2.427-1.506 2.49-1.498 2.55-1.486 2.595-1.47 2.63-1.452 2.67-1.428 2.708-1.4 2.742-1.371 2.771-1.336 2.8-1.295 2.825-1.248 2.854-1.19 2.893-1.134 2.912-1.082 2.915-1.031 2.905-.985 2.88-.926 2.855-.863 2.83-.789 2.81-.691 2.81-.618 2.769-.562 2.705-.504 2.592-.436 2.393-.4 2.287-.38 2.244-.409 2.2-.51 2.147-.53 2.174-.507 2.248-.453 2.432-.342 2.8-.271 2.993-.221 3.084-.166 3.123-.107 3.057-.061 3.056-.023 3.067.004 3.132.005 3.327.03 3.306.058 3.182.094 2.873.137 2.248.172 1.932.205 1.799.236 1.708.266 1.71.297 1.75.328 1.82.359 2.033.39 2.47.423 2.693.453 2.791.484 2.857.514 2.854.545 2.834.578 2.805.613 2.695.656 2.47.692 2.343.718 2.277.746 2.223.77 2.205.79 2.181.808 2.156.82 2.146.824 2.165.836 2.166.85 2.152.865 2.141.893 2.13.908 2.112.916 2.088.908 2.045.865 1.96.865 1.923.899 1.931.934 1.936.964 1.934 1.04 1.992 1.132 2.072 1.301 2.252 1.594 2.6 1.746 2.755 1.824 2.805 1.836 2.777 1.725 2.618 1.713 2.535 1.732 2.473 1.83 2.437 2.098 2.486 2.125 2.39 1.937 2.113 1.84 2.012 1.848 2.166 1.59 1.897 1.718 1.98 1.844 1.957 2.156 1.926 2.281 1.948 2.29 2 2.273 2.125 2.21 2.375 2.102 2.5 1.973 2.59 1.715 2.535 1.246 2.191 1.004 2.247.895 2.53.855 3.032.467 1.86.482 2.046.492 2.201.496 2.33.493 2.403.504 2.54.52 2.694.546 2.926.598 3.297.31 1.723.315 1.757.32 1.776.322 1.783.323 1.783.312 1.757.574 3.346.582 3.27.623 3.238.721 3.27.445 1.72.483 1.736.502 1.716.515 1.691 1.041 3.244 1.014 2.893.879 2.205.832 1.846.824 1.664.84 1.598.916 1.771.932 1.76.914 1.652.863 1.504 1.434 2.344 1.379 1.97 1.453 1.807 1.734 1.88 2.422 2.41 1.316 1.241 1.325 1.223 2.472 2.242 2.465 1.883 2.809 1.258 2.191.742-.984 1.691-1.016 2.31-.266 2.402.016 2.535.05 2.664.2 2.398.938 2.813 1.062 2.187.813 2.563.187 2.437-1.465 1.781-1.535 2.22-.398 2.84.023 3.097-.023 3.09.398 2.972 1.523 2.88 1.477 2.12-1.5 2.5-.824 1.648-.676 1.852-.27 2.04-.043 2.085.098 2.06.215 1.815.625 2.188 1.375 1.812 1.18 1.254 1.431 1.328 1.631 1.336 1.758 1.082 1.773.44 1.846.126h1.94l2.027-.078 2.127-.02 2.19-.029 2.222-.062 2.25-.064 2.283-.038 2.26-.03 2.184-.034 2.109-.035 2.064-.047 1.883-.049 2.842-.08v3l.813 1.98 1.187 2.207 1.395 2.41 1.605 2.403 1.762 2.121 1.925 2.004 2.09 1.965 2.223 1.91 2.316 1.88 2.434 1.807 2.535 1.74 2.715 1.573 3.059 1.23 3.128 1.145 3.063 1.18 2.75 1.445 2 2.133 1.688 2.367 1.628 2.34 1.684 2.16 1.965 1.691 2.16 1.371 2.293 1.118 2.582.82 3.113.508 3.324.18 3.344-.145 3.219-.543 2.844-1.074 2.593-1.426 2.434-1.647 2.129-1.852 1.598-2.04 1.402-2.084 1.395-2.066 1.605-1.81 2.2-1.152 2.487-.91 2.602-.9 2.711-1.038 2.773-1.477 2.79-1.71 2.769-1.84 2.668-1.973 2.45-2.066 2.3-2.184 2.168-2.262 2.082-2.488 1.064-1.475 1.05-1.545.923-1.402 1.025-1.64 1.59-2.66 1.348-2.278 2.355-.076 3.262-.108 1.735-.06 1.793-.063 1.853-.066 1.877-.064 1.865-.061 1.842-.06 1.795-.063 1.74-.063 3.27-.11 2.613-.206 2-1 2.438-1.688 2.562-2.312 1.813-2.75 1.187-3.25.32-1.953.118-2.047-.06-2.055-.378-1.945-.973-1.633-1.152-1.492-1.875-2.875.75-2.625.66-1.457.59-1.918.184-3.012.004-3.3-.02-3.176-.168-2.512-1-1-.688-2.25-.312-2.75.969-2.285 1.031-2.715.23-3.043-.043-3.144-.019-3.168-.168-2.645-1-2 2.152-.297 2.848-.703 2.754-1.453 2.808-1.797 2.817-1.766 2.621-1.984 2.168-2.527 1.832-2.473 1.422-1.676 1.328-1.637 1.543-2.097 1.707-2.59.97-1.605 1.018-1.766 1.033-1.885 1.042-1.994 1.039-2.088 1.015-2.166.98-2.234.903-2.262.764-2.22.681-2.245.639-2.324.603-2.4.59-2.457.578-2.588.569-2.745.576-3.021.303-1.71.308-1.804.313-1.855.314-1.897.32-1.916.32-1.927.317-1.928.305-1.9.273-1.83.264-1.794.274-1.775.283-1.754.297-1.738.324-1.73.361-1.715.424-1.727.533-1.771.596-1.77.627-1.736.65-1.696 1.323-3.22 1.271-2.807 1.037-2.027.963-1.63 2-2.843 1.135-1.6 1.217-1.65 1.277-1.625 1.371-1.625 1.504-1.625 1.582-1.625 1.627-1.625 1.662-1.625 1.68-1.627 1.675-1.627 1.663-1.625 1.607-1.621 1.494-1.61 1.432-1.605 1.394-1.607 1.368-1.615 1.359-1.634 1.34-1.64 1.318-1.65 1.295-1.64 1.268-1.61 1.252-1.616 1.244-1.65 1.236-1.685 1.225-1.717 1.232-1.791 1.248-1.883 1.295-2.047 1.393-2.328 1.431-2.477 1.436-2.545 1.428-2.587 1.402-2.59 1.363-2.563 1.315-2.515 1.232-2.395 1.1-2.164 1.01-2.027.943-1.94.885-1.87.845-1.843.795-1.79.74-1.723.682-1.643 1.172-2.992 1.016-2.883.917-2.938.895-3.187.486-1.816.502-1.934.506-2.018.506-2.107.492-2.203.492-2.27.498-2.328.518-2.324.564-2.203.577-2.23.564-2.372.545-2.507.516-2.625.472-2.91.42-3.262.184-1.838.158-2.053.123-2.393.098-2.603.078-2.73.056-2.833.04-2.884.025-2.924.01-2.953.007-2.93.018-2.842.012-2.797-.006-2.765-.027-2.737-.05-2.714-.081-2.68-.121-2.631-.182-2.584-.281-2.531-.34-2.47-.373-2.392-.397-2.318-.41-2.25-.412-2.148-.408-2.03-.379-1.861-.586-3.047-.52-2.601-.529-2.385-.553-2.342-.625-2.621-.68-2.695-.722-2.66-.785-2.65-.879-2.62-.941-2.594-.979-2.562-1.013-2.536-1.043-2.517-1.055-2.467-1.059-2.404-1.031-2.3-.95-2.12-.921-2.02-.932-1.976-.947-1.945-.977-1.928-1.023-1.948-1.078-1.98-1.172-2.082-1.328-2.293-1.422-2.394-1.479-2.43-1.521-2.445-1.535-2.418-1.555-2.387-1.574-2.35-1.586-2.283-1.598-2.174-1.593-2.084-1.573-2.002-1.548-1.927-1.536-1.872-1.48-1.777-1.404-1.662-1.268-1.502-1.922-2.352-1.64-1.96-1.625-1.817-1.813-1.871-2.375-2.277-1.313-1.22-1.375-1.253-1.412-1.264-1.459-1.29-1.511-1.33-1.555-1.366-1.59-1.424-1.633-1.46-1.677-1.485-1.725-1.506-1.771-1.518-1.819-1.53-1.867-1.536-1.918-1.541-1.977-1.541-2.027-1.537-2.07-1.53-2.113-1.517-2.153-1.508-2.187-1.488-2.223-1.461-2.25-1.418-2.27-1.352-2.296-1.308-2.329-1.277-2.355-1.25-2.375-1.225-2.41-1.205-2.45-1.19-2.515-1.193-2.629-1.225-2.68-1.22-2.69-1.198-2.689-1.17-2.675-1.134-2.63-1.084-2.564-1.028-2.443-.941-2.225-.81-2.095-.721-2.024-.664-1.969-.617-1.958-.584-1.936-.557-1.908-.53-1.885-.517-1.85-.525-1.85-.522-1.878-.514-1.922-.502-1.975-.48-2.056-.477-2.16-.478-2.309-.502-2.527-.56-2.692-.577-2.83-.566-2.951-.547-3.025-.518-3.155-.474-3.302-.422-1.725-.182-1.793-.154-1.895-.115-1.957-.09-2-.066-2.03-.05-2.044-.034-2.058-.02-2.069-.006zm-2.357 18.94 2.635.014 2.607.028 2.57.043 2.541.058 2.467.076 2.371.098 2.219.123 1.977.158 1.82.184 3.332.42 3.05.472 2.821.516 2.717.55 2.572.567 2.416.578 2.295.555 2.21.486 2.126.46 2.05.46 1.989.47 1.928.495 1.896.52 1.889.54 1.912.57 1.986.6 2.034.633 2.068.677 2.1.715 2.101.748 2.152.803 2.22.864 2.339.96 2.555 1.104 2.66 1.189 2.695 1.238 2.715 1.282 2.709 1.31 2.658 1.315 2.586 1.308 2.422 1.254 2.117 1.12 1.953 1.067 1.873 1.063 1.807 1.062 1.773 1.076 1.778 1.123 1.795 1.181 1.904 1.307 2.158 1.545 2.26 1.662 2.28 1.711 2.24 1.707 2.078 1.596 2.011 1.568 1.979 1.578 1.994 1.633 2.125 1.787 2.102 1.81 1.998 1.77 1.775 1.633 1.328 1.33 1.106 1.19 2.004 2.293 2.277 2.59 2.285 2.597 2.254 2.441 2.246 2.434 2.25 2.512 2.25 2.613 1.125 1.365 1.125 1.405 1.125 1.44 1.125 1.478 1.123 1.508 1.123 1.55 1.125 1.599 1.129 1.655 1.14 1.739 1.145 1.796 1.14 1.836 1.137 1.88 1.133 1.927 1.121 1.947 1.106 1.957 1.078 1.918 1.027 1.793 1 1.77.99 1.816.983 1.871.973 1.937.98 2.067.998 2.23 1.049 2.517 1.158 3.004 1.201 3.273.602 1.686.6 1.717.597 1.742.592 1.766.584 1.787.572 1.79.56 1.782.546 1.77.533 1.76.512 1.716.943 3.207.783 2.61.674 2.355.59 2.33.516 2.33.462 2.367.397 2.586.326 2.885.137 1.65.115 1.887.092 2.277.074 2.51.057 2.645.043 2.74.029 2.767.016 2.8.003 2.823-.001 2.813-.006 2.775-.014 2.723-.025 2.658-.03 2.555-.023 2.406-.037 2.283-.065 2.17-.113 2.055-.213 1.95-.256 1.823-.531 3.227-.37 2.389-.357 2.15-.425 2.475-.473 2.61-.521 2.772-.569 2.854-.617 2.89-.668 2.86-.727 2.719-.777 2.656-.82 2.633-.863 2.617-.9 2.629-.936 2.613-.973 2.586-1.004 2.547-1.035 2.492-1.067 2.453-1.091 2.418-1.12 2.387-1.148 2.363-1.168 2.332-1.184 2.297-1.187 2.258-1.168 2.203-1.172 2.164-1.193 2.14-1.217 2.117-1.244 2.094-1.283 2.086-1.328 2.086-1.395 2.11-1.5 2.18-1.566 2.203-1.608 2.193-1.638 2.174-1.65 2.143-1.667 2.1-1.68 2.046-1.691 1.96-1.703 1.829-1.7 1.742-1.683 1.68-1.664 1.625-1.64 1.59-1.598 1.55-1.545 1.51-1.467 1.475-1.346 1.443-1.26 1.416-1.195 1.393-1.137 1.373-2.136 2.7-1.926 2.674-1.707 2.707-1.543 2.73-1.322 2.645-1.428 2.918-1.2 2.371-1.183 2.56-1.31 3.174-.66 1.831-.647 2.064-.607 2.41-.59 2.634-.58 2.773-.575 2.883-.572 2.93-.568 2.982-.567 3.026-.566 3.05-.578 3.067-.578 3.045-.576 2.998-.557 2.902-.502 2.729-.496 2.61-.51 2.505-.578 2.457-.756 2.54-.8 2.427-.747 2.15-.697 1.883-1.176 2.82-1.136 2.305-1.305 2.516-1.383 2.359-1.445 2.047-1.493 1.828-1.34 1.555-1.722 1.57-2.635 2.066-1.627 1.064-1.738.87-1.734.375-1.815.133-1.935.032-2.069-.023-2.242.02-2.371.017-2.473-.008-2.562-.012-2.627.012-2.695.015-2.768.012-2.832.01-2.898-.002-2.95-.004-2.988-.006-3.01-.004-3 .002-3.011.006-3.036.006-3.058.004-3.088.006-3.113.002-3.137.002h-3.162l-3.192-.002-3.214-.006-3.23-.004-3.245-.006-3.252-.006-3.26-.006-3.265-.003h-3.268l-3.268.005-3.265.008-3.26.01-3.252.012-3.244.01-3.23.01-3.215.01-3.192.007-3.162.004h-6.25l-3.088-.002-3.058-.004-3.036-.002-3.011-.004-3 .002-3.01.01-2.988.011-2.95.012-2.898.008-2.832-.006-2.768-.012-2.695-.013-2.627-.008-2.562.02-2.473.015-2.371-.016-2.242-.02-2.069.034-1.935-.037-1.817-.164-1.732-.463-1.725-1.07-1.613-1.319-1.404-1.304-1.258-1.307-2.16-2.402-1.903-2.536-1.931-2.812-1.041-1.62-.965-1.63-1.336-2.896-1.156-3.135-.635-1.79-.644-1.927-.627-2.049-.602-2.203-.555-2.408-.527-2.545-.514-2.645-.502-2.718-.498-2.762-.492-2.803-.488-2.832-.487-2.85-.492-2.853-.494-2.84-.494-2.803-.492-2.757-.486-2.707-.489-2.62-.49-2.507-.5-2.35-.523-2.11-.532-1.939-.53-1.805-.517-1.658-.935-2.884-.963-2.604-1.197-2.818-1.115-2.432-1.258-2.398-1.43-2.352-1.805-2.477-1.882-2.398c-2.853-3.5-6.019-7.839-10.254-11.02l-1.756-1.878-1.865-2.04-1.917-2.082-1.916-2.093-1.88-2.084-1.725-1.928-1.377-1.549-1.197-1.369-2.176-2.582-2.102-2.633-1.046-1.377-1.102-1.49-1.234-1.717-1.29-1.838-1.3-1.888-1.301-1.932-1.281-1.95-1.25-1.937-1.211-1.916-1.133-1.822-.992-1.615-.914-1.53-1.719-3.043-.828-1.552-.828-1.627-.836-1.723-.883-1.91-.992-2.254-1.04-2.44-1.046-2.527-1.047-2.59-1.027-2.623-.996-2.6-.961-2.56-.891-2.406-.773-2.074-.704-1.922-.656-1.879-.617-1.875-.588-1.943-.564-2.01-.547-2.088-.551-2.209-.594-2.38-.597-2.542-.575-2.717-.547-2.86-.51-2.935-.458-3.16-.403-3.449-.171-1.89-.145-2.067-.105-2.348-.079-2.515-.058-2.612-.04-2.68-.025-2.699-.011-2.714v-2.723l.006-2.709.007-2.672.012-2.619.025-2.56.03-2.462.023-2.294.037-2.194.065-2.113.113-2.086.207-2.162.254-2.104.271-1.982.268-1.752.434-2.434.433-2.004.496-2.273.512-2.289.488-2.29.504-2.273.537-2.25.596-2.187.705-2.059.756-1.996.775-1.974.764-1.97.69-1.993.67-2.016.68-2.027.71-2.09.783-2.24.815-2.272.828-2.24.824-2.123.781-1.854.778-1.728.8-1.69.828-1.666.862-1.68.912-1.718.973-1.768 1.066-1.896 1.223-2.146 1.316-2.268 1.365-2.313 1.409-2.335 1.437-2.329 1.441-2.289 1.434-2.23 1.375-2.09 1.23-1.826 1.172-1.682 1.17-1.615 1.178-1.564 1.203-1.547 1.258-1.55 1.328-1.568 1.461-1.648 1.703-1.832 1.836-1.914 1.897-1.936 1.939-1.943 1.951-1.92 1.94-1.88 1.912-1.835 1.822-1.74 1.635-1.572 1.537-1.47 1.49-1.41 1.463-1.36 1.475-1.338 1.47-1.31 1.465-1.282 1.465-1.258 1.455-1.242 1.475-1.235 1.513-1.232 1.557-1.228 1.594-1.22 1.676-1.238 1.779-1.267 1.951-1.338 2.236-1.475 2.4-1.537 2.493-1.554 2.558-1.559 2.575-1.537 2.586-1.502 2.59-1.457 2.562-1.379 2.496-1.244 2.438-1.154 2.394-1.09 2.297-1.012 2.111-.914 2.053-.867 2.066-.846 2.145-.873 2.332-.98 2.457-1.016 2.55-1.014 2.661-.99 2.781-.924 2.89-.892 2.974-.873 3.105-.873 3.338-.918 1.695-.456 1.697-.447 3.362-.853 3.158-.764 2.654-.61 2.46-.507 2.458-.442 2.49-.378 2.575-.336 2.777-.29 3.035-.238 1.686-.103 1.865-.096 2.154-.092 2.334-.084 2.444-.074 2.529-.063 2.566-.048 2.61-.04 2.642-.023 2.659-.014h2.652zm-83.59 447.44h156v11h-156zm0 24h157v9h-157zm0 22h157v8h-157zm39.24 20.924 76.76.076s-.71 1.845-1.541 3.082c-.378.562-1.116 1.7-1.799 2.445-.48.524-1.057.95-1.597 1.41-.617.526-1.23 1.055-1.876 1.543a27.92 27.92 0 0 1-2.187 1.52c-.848.522-1.737.976-2.625 1.426-.924.468-1.87.892-2.813 1.324-.87.4-1.734.812-2.62 1.172a53.504 53.504 0 0 1-6.747 2.196 49.11 49.11 0 0 1-2.068.49c-.705.149-1.414.29-2.127.393-.702.1-1.41.165-2.117.22-.714.057-1.43.09-2.145.116-.727.027-1.454.038-2.181.045-.748.007-1.496-.004-2.245-.006-.79-.003-1.582 0-2.373-.01-.796-.01-1.592-.024-2.388-.053a71.185 71.185 0 0 1-2.342-.117 41.688 41.688 0 0 1-2.209-.195c-.647-.08-1.29-.185-1.932-.305a30.048 30.048 0 0 1-1.775-.383 52.552 52.552 0 0 1-3.293-.937 48.755 48.755 0 0 1-3.098-1.105 49.92 49.92 0 0 1-2.902-1.27 59.092 59.092 0 0 1-5.438-2.938c-.81-.493-2.394-1.542-2.394-1.542l-2.168-1.52-1.95-1.426-1.675-1.324s-1.82-1.595-2.643-2.48c-.538-.58-1.492-1.846-1.492-1.846z" style="fill:#0c9a72"/>
</svg>
